<?xml version="1.0" standalone="no"?>
<!DOCTYPE svg PUBLIC "-//W3C//DTD SVG 20010904//EN"
 "http://www.w3.org/TR/2001/REC-SVG-20010904/DTD/svg10.dtd">
<svg version="1.0" xmlns="http://www.w3.org/2000/svg"
 width="78.000000pt" height="76.000000pt" viewBox="0 0 78.000000 76.000000"
 preserveAspectRatio="xMidYMid meet">

<g transform="translate(0.000000,76.000000) scale(0.100000,-0.100000)"
fill="#000000" stroke="none">
<path d="M415 673 c-31 -8 -40 -20 -26 -37 6 -7 13 -40 14 -72 4 -70 -18 -101
-76 -111 -31 -5 -43 -1 -64 18 -19 17 -24 19 -20 7 3 -9 -3 -39 -14 -67 -30
-80 -30 -80 60 -57 62 16 82 25 90 43 12 26 29 30 37 8 4 -10 14 -13 28 -9 30
7 64 -39 45 -62 -6 -8 -8 -14 -3 -14 4 0 3 -5 -3 -11 -6 -6 -71 -26 -145 -44
-148 -36 -153 -41 -124 -109 20 -47 61 -71 152 -85 79 -13 125 -9 144 15 10
11 3 18 -41 39 -30 14 -59 25 -65 25 -17 0 -38 28 -39 53 -1 12 7 32 18 43 17
18 24 20 39 10 16 -9 21 -8 29 7 8 14 14 16 25 6 8 -6 14 -19 14 -29 0 -25 58
-49 71 -29 12 19 29 103 29 143 0 39 -12 56 -68 90 -44 28 -48 52 -6 42 28 -7
30 0 8 26 -16 16 -15 18 2 25 35 13 43 26 27 45 -14 15 -16 15 -34 -3 -16 -16
-23 -17 -40 -9 -11 6 -18 17 -16 23 4 11 9 13 50 16 20 1 22 20 5 43 -14 18
-71 29 -103 21z"/>
</g>
</svg>
